<?xml version="1.0" encoding="UTF-8" standalone="no"?>
<!-- Created with Inkscape (http://www.inkscape.org/) -->

<svg
   xmlns:dc="http://purl.org/dc/elements/1.1/"
   xmlns:cc="http://creativecommons.org/ns#"
   xmlns:rdf="http://www.w3.org/1999/02/22-rdf-syntax-ns#"
   xmlns:svg="http://www.w3.org/2000/svg"
   xmlns="http://www.w3.org/2000/svg"
   xmlns:xlink="http://www.w3.org/1999/xlink"
   xmlns:sodipodi="http://sodipodi.sourceforge.net/DTD/sodipodi-0.dtd"
   xmlns:inkscape="http://www.inkscape.org/namespaces/inkscape"
   width="636.46875"
   height="214.84375"
   id="svg2"
   version="1.1"
   inkscape:version="0.48.1 r9760"
   sodipodi:docname="cycle-branching.svg"
   inkscape:export-filename="cycle-branching.png"
   inkscape:export-xdpi="90"
   inkscape:export-ydpi="90">
  <defs
     id="defs4" />
  <sodipodi:namedview
     id="base"
     pagecolor="#ffffff"
     bordercolor="#666666"
     borderopacity="1.0"
     inkscape:pageopacity="0.0"
     inkscape:pageshadow="2"
     inkscape:zoom="1"
     inkscape:cx="373.69062"
     inkscape:cy="83.169466"
     inkscape:document-units="px"
     inkscape:current-layer="layer1"
     showgrid="false"
     fit-margin-top="0"
     fit-margin-left="0"
     fit-margin-right="0"
     fit-margin-bottom="0"
     inkscape:window-width="1024"
     inkscape:window-height="744"
     inkscape:window-x="0"
     inkscape:window-y="24"
     inkscape:window-maximized="1"
     showguides="true"
     inkscape:guide-bbox="true" />
  <metadata
     id="metadata7">
    <rdf:RDF>
      <cc:Work
         rdf:about="">
        <dc:format>image/svg+xml</dc:format>
        <dc:type
           rdf:resource="http://purl.org/dc/dcmitype/StillImage" />
        <dc:title></dc:title>
      </cc:Work>
    </rdf:RDF>
  </metadata>
  <g
     inkscape:label="Layer 1"
     inkscape:groupmode="layer"
     id="layer1"
     transform="translate(-58.46875,-55.40625)">
    <path
       style="color:#000000;fill:#72cd00;fill-opacity:1;fill-rule:nonzero;stroke:#000000;stroke-width:2;stroke-linecap:butt;stroke-linejoin:miter;stroke-miterlimit:4;stroke-opacity:1;stroke-dasharray:none;stroke-dashoffset:0;marker:none;visibility:visible;display:inline;overflow:visible;enable-background:accumulate"
       d="m 477.28116,184.97462 c -6.21441,0.2882 -11.7315,3.7291 -14.86469,8.8568 -41.42159,-2.62724 -79.90332,-3.33253 -118.91754,-2.52128 2.01964,5.10815 2.16835,10.95337 -0.12925,16.00041 37.51241,-0.51184 74.71055,0.38674 113.94108,2.9738 1.27262,0.084 2.54132,0.13938 3.81312,0.22628 2.5238,6.07036 8.18973,10.58154 15.18785,11.28109 10.14189,1.01381 19.18306,-6.37271 20.19658,-16.51759 1.01352,-10.1449 -6.37084,-19.18872 -16.51273,-20.20254 -0.91119,-0.0911 -1.82664,-0.13813 -2.71442,-0.097 z"
       id="path3908"
       inkscape:connector-curvature="0"
       sodipodi:nodetypes="ccccccssccc" />
    <path
       style="color:#000000;fill:#aaff00;fill-opacity:1;fill-rule:nonzero;stroke:#000000;stroke-width:2;stroke-linecap:butt;stroke-linejoin:miter;stroke-miterlimit:4;stroke-opacity:1;stroke-dasharray:none;stroke-dashoffset:0;marker:none;visibility:visible;display:inline;overflow:visible;enable-background:accumulate"
       d="m 320.4245,180.44189 c -7.3258,0 -13.62919,4.28564 -16.60969,10.47298 -71.95002,2.8155 -97.6801,4.53671 -154.68973,14.15795 l -0.45241,-23.33797 -17.74069,12.05686 -22.29703,-7.88706 2.48822,42.60309 c 51.44572,-10.08396 141.1688,-18.72882 189.23399,-20.71971 1.27465,-0.043 2.53899,-0.0893 3.81311,-0.12929 3.11473,5.78924 9.22126,9.69721 16.25423,9.69721 10.19242,0 18.4516,-8.26162 18.4516,-18.45703 0,-10.19542 -8.25918,-18.45703 -18.4516,-18.45703 z"
       id="path3876"
       inkscape:connector-curvature="0" />
    <path
       style="color:#000000;fill:#ffcd00;fill-opacity:1;fill-rule:nonzero;stroke:#000000;stroke-width:2;stroke-linecap:butt;stroke-linejoin:miter;stroke-miterlimit:4;stroke-opacity:1;stroke-dasharray:none;stroke-dashoffset:0;marker:none;visibility:visible;display:inline;overflow:visible;enable-background:accumulate"
       d="M 357.7478,86.249605 C 261.27465,86.454788 164.79155,95.04493 68.274077,112.94927 l 18.936325,29.44721 -3.97469,9.98813 -0.161572,0.0323 -7.432346,18.10147 0.420088,-0.0323 -2.972937,7.46686 c 9.930778,-1.80807 19.828095,-3.53889 29.729385,-5.17186 l 0.4524,5.01023 26.01321,9.56792 25.17303,-15.74181 -0.16156,-6.52945 c 104.05181,-14.02963 206.44386,-18.25919 307.14976,-12.47709 l -98.62399,-15.87111 c -69.86316,0.1006 -139.71555,5.12394 -208.88123,14.93371 l -0.12927,-4.07282 C 276.3934,130.18719 399.112,126.20197 541.94072,144.04499 l -2.1974,15.22463 c 0.052,0.004 0.1095,-0.004 0.16157,0 l -0.74323,4.39607 22.71713,15.87111 28.33986,-8.82446 1.32489,-5.52741 c 26.26604,3.69016 53.57327,8.21291 75.42216,11.73363 l -3.65155,-9.89117 -69.41164,-11.8306 0.6786,-2.90915 0.80787,-1.64853 c 22.21666,3.44282 44.74207,7.40506 67.60203,11.92757 l 11.89176,-13.80237 -8.17559,-35.6211 C 628.92405,106.62504 591.13711,101.23995 553.34775,97.045838 l -10.89,-1.19599 C 480.89637,89.390803 419.32602,86.118639 357.7478,86.249605 z"
       id="path3023"
       inkscape:connector-curvature="0" />
    <text
       xml:space="preserve"
       style="font-size:20px;font-style:normal;font-variant:normal;font-weight:bold;font-stretch:normal;text-align:center;line-height:125%;letter-spacing:0px;word-spacing:0px;text-anchor:middle;fill:#000000;fill-opacity:1;stroke:none;font-family:Ubuntu;-inkscape-font-specification:Ubuntu Bold"
       id="text3056"
       sodipodi:linespacing="125%"><textPath
         xlink:href="#path3087"
         startOffset="50%"
         id="textPath3857"><tspan
   id="tspan3058">mainline (trunk branch), work on new features</tspan></textPath></text>
    <path
       sodipodi:nodetypes="cc"
       inkscape:connector-curvature="0"
       id="path3087"
       d="M 107.98332,136.20274 C 265.8825,111.76872 419.514,109.1606 568.72291,128.98067"
       style="color:#000000;fill:none;stroke:#000000;stroke-width:2;stroke-linecap:butt;stroke-linejoin:miter;stroke-miterlimit:4;stroke-opacity:0.04273502;stroke-dasharray:none;stroke-dashoffset:0;marker:none;visibility:visible;display:inline;overflow:visible;enable-background:accumulate" />
    <text
       xml:space="preserve"
       style="font-size:20.68435097px;font-style:normal;font-variant:normal;font-weight:bold;font-stretch:normal;text-align:center;line-height:125%;letter-spacing:0px;word-spacing:0px;text-anchor:middle;fill:#000000;fill-opacity:1;stroke:none;font-family:Ubuntu;-inkscape-font-specification:Ubuntu Bold"
       x="104.58002"
       y="177.6615"
       id="text3868"
       sodipodi:linespacing="125%"
       transform="matrix(0.99026324,-0.13818804,0.13814742,0.99055447,0,0)"><tspan
         sodipodi:role="line"
         id="tspan3870"
         x="104.58002"
         y="177.6615">1.0</tspan></text>
    <path
       style="fill:none;stroke:#000000;stroke-width:1px;stroke-linecap:butt;stroke-linejoin:miter;stroke-opacity:0.04166667"
       d="m 111.45875,225.75607 c 63.36194,-13.74646 91.60438,-18.13492 190.58587,-22.04256"
       id="path3882"
       inkscape:connector-curvature="0"
       sodipodi:nodetypes="cc" />
    <text
       xml:space="preserve"
       style="font-size:10px;font-style:normal;font-variant:normal;font-weight:normal;font-stretch:normal;text-align:end;line-height:125%;letter-spacing:0px;word-spacing:0px;text-anchor:end;fill:#000000;fill-opacity:1;stroke:none;font-family:Ubuntu;-inkscape-font-specification:Ubuntu"
       id="text3872"
       sodipodi:linespacing="125%"><textPath
         xlink:href="#path3882-4"
         startOffset="100%"
         id="textPath3905"><tspan
   id="tspan3874"
   style="font-size:10px">upstream release</tspan></textPath></text>
    <text
       sodipodi:linespacing="125%"
       id="text3878"
       style="font-size:12.83209133px;font-style:normal;font-variant:normal;font-weight:normal;font-stretch:normal;text-align:end;line-height:125%;letter-spacing:0px;word-spacing:0px;text-anchor:end;fill:#000000;fill-opacity:1;stroke:none;font-family:Ubuntu;-inkscape-font-specification:Ubuntu"
       xml:space="preserve"><textPath
         xlink:href="#path3882"
         startOffset="100%"
         id="textPath3884"><tspan
   id="tspan3880">Ubuntu dev release</tspan></textPath></text>
    <path
       style="fill:none;stroke:#000000;stroke-width:1px;stroke-linecap:butt;stroke-linejoin:miter;stroke-opacity:0.04166667"
       d="m 344.4292,204.50164 c 32.7627,-0.85228 79.78019,0.34265 113.73611,2.57919"
       id="path3929"
       inkscape:connector-curvature="0"
       sodipodi:nodetypes="cc" />
    <path
       style="fill:none;stroke:#000000;stroke-width:1px;stroke-linecap:butt;stroke-linejoin:miter;stroke-opacity:0.05555558"
       d="M 83.138967,173.36579 C 148.90667,159.92922 233.42727,151.13133 329.56437,147.18575"
       id="path3882-4"
       inkscape:connector-curvature="0"
       sodipodi:nodetypes="cc" />
    <text
       sodipodi:linespacing="125%"
       id="text3954"
       y="210.14052"
       x="477.42123"
       style="font-size:20.68435097px;font-style:normal;font-variant:normal;font-weight:bold;font-stretch:normal;text-align:center;line-height:125%;letter-spacing:0px;word-spacing:0px;text-anchor:middle;fill:#000000;fill-opacity:1;stroke:none;font-family:Ubuntu;-inkscape-font-specification:Ubuntu Bold"
       xml:space="preserve"
       transform="scale(0.99985299,1.000147)"><tspan
         y="210.14052"
         x="477.42123"
         id="tspan3956"
         sodipodi:role="line">-2</tspan></text>
    <text
       sodipodi:linespacing="125%"
       id="text3878-2"
       style="font-size:12.83209133px;font-style:normal;font-variant:normal;font-weight:normal;font-stretch:normal;text-align:end;line-height:125%;letter-spacing:0px;word-spacing:0px;text-anchor:end;fill:#000000;fill-opacity:1;stroke:none;font-family:Ubuntu;-inkscape-font-specification:Ubuntu"
       xml:space="preserve"><textPath
         xlink:href="#path3929"
         startOffset="100%"
         id="textPath3947">added bug fix<tspan
   id="tspan3880-4" /></textPath></text>
    <text
       xml:space="preserve"
       style="font-size:20.68435097px;font-style:normal;font-variant:normal;font-weight:bold;font-stretch:normal;text-align:center;line-height:125%;letter-spacing:0px;word-spacing:0px;text-anchor:middle;fill:#000000;fill-opacity:1;stroke:none;font-family:Ubuntu;-inkscape-font-specification:Ubuntu Bold"
       x="321.01059"
       y="205.65683"
       id="text3950"
       sodipodi:linespacing="125%"
       transform="scale(0.99985299,1.000147)"><tspan
         sodipodi:role="line"
         id="tspan3952"
         x="321.01059"
         y="205.65683">-1</tspan></text>
    <text
       xml:space="preserve"
       style="font-size:20.68435097px;font-style:normal;font-variant:normal;font-weight:bold;font-stretch:normal;text-align:center;line-height:125%;letter-spacing:0px;word-spacing:0px;text-anchor:middle;fill:#000000;fill-opacity:1;stroke:none;font-family:Ubuntu;-inkscape-font-specification:Ubuntu Bold"
       x="583.02209"
       y="68.697762"
       id="text3868-6"
       sodipodi:linespacing="125%"
       transform="matrix(0.98814153,0.1526303,-0.15258542,0.98843214,0,0)"><tspan
         sodipodi:role="line"
         id="tspan3870-5"
         x="583.02209"
         y="68.697762">1.1</tspan></text>
    <path
       style="color:#000000;fill:#72cd00;fill-opacity:1;fill-rule:nonzero;stroke:#000000;stroke-width:2;stroke-linecap:butt;stroke-linejoin:miter;stroke-miterlimit:4;stroke-opacity:1;stroke-dasharray:none;stroke-dashoffset:0;marker:none;visibility:visible;display:inline;overflow:visible;enable-background:accumulate"
       d="m 485.74572,181.57322 c 0.8529,0.23855 1.67668,0.54845 2.48822,0.90508 3.11495,1.1567 5.70117,3.11289 7.69085,5.55973 l 36.99492,-49.84797 z"
       id="path3129"
       inkscape:connector-curvature="0"
       sodipodi:nodetypes="ccccc" />
    <path
       style="color:#000000;fill:#aaff00;fill-opacity:1;fill-rule:nonzero;stroke:#000000;stroke-width:2;stroke-linecap:butt;stroke-linejoin:miter;stroke-miterlimit:4;stroke-opacity:1;stroke-dasharray:none;stroke-dashoffset:0;marker:none;visibility:visible;display:inline;overflow:visible;enable-background:accumulate"
       d="m 541.42368,172.19926 -8.62799,41.79499 c 35.59223,2.44368 88.11283,10.12405 132.84512,18.10147 l -6.17208,-19.36211 c -41.64624,-6.8629 -57.51958,-9.15546 -83.88857,-11.53968 l 5.59042,-22.65916 -20.26122,7.04664 z"
       id="path3876-9"
       inkscape:connector-curvature="0"
       sodipodi:nodetypes="cccccccc" />
    <text
       sodipodi:linespacing="125%"
       id="text3878-7"
       style="font-size:13.27117443px;font-style:normal;font-variant:normal;font-weight:normal;font-stretch:normal;text-align:end;line-height:125%;letter-spacing:0px;word-spacing:0px;text-anchor:end;fill:#000000;fill-opacity:1;stroke:none;font-family:Ubuntu;-inkscape-font-specification:Ubuntu"
       xml:space="preserve"
       x="678.42645"
       y="133.42302"
       transform="matrix(0.99041876,0.13706822,-0.13702792,0.99071006,0,0)"><tspan
         id="tspan3880-5">New dev release</tspan></text>
  </g>
</svg>
