<?xml version="1.0" encoding="UTF-8"?>
<svg id="Layer_1" data-name="Layer 1" xmlns="http://www.w3.org/2000/svg" viewBox="0 0 512 512">
  <defs>
    <style>
      .cls-1 {
        fill: #e95420;
      }

      .cls-2 {
        fill: #fff;
      }
    </style>
  </defs>
  <rect class="cls-1" width="512" height="512"/>
  <g>
    <circle class="cls-2" cx="117.07" cy="244.75" r="53"/>
    <circle class="cls-2" cx="337.83" cy="128.53" r="53"/>
    <path class="cls-2" d="m236.62,381.17c-38.17-8.17-70.1-32.57-88.03-67.14-14.14,6.43-30.02,8.4-45.31,5.58,21.7,53.3,67.74,92.02,124.23,104.13,12.39,2.66,25.05,3.96,37.64,3.87-9.74-12.8-15.15-28.23-15.52-44.32-4.36-.49-8.72-1.2-13-2.11l-.02-.02Z"/>
    <circle class="cls-2" cx="325.88" cy="381.47" r="53"/>
    <path class="cls-2" d="m399.63,362c16.49-20.77,28.09-45.33,33.69-71.46,9.76-45.51.65-93.28-24.99-132.02-6.11,14.38-16.47,26.55-29.82,34.91,14.3,26.96,18.66,58.07,12.25,88.01-3.14,14.64-8.68,28.46-16.49,41.07,12.47,10.22,21.28,23.99,25.37,39.49h-.02Z"/>
    <path class="cls-2" d="m112.98,168.75c1.34-.08,2.7-.1,4.04-.1,5.35,0,10.71.57,16,1.7,8.64,1.85,16.77,5.13,24.2,9.74,23.87-34.32,62.37-54.93,104.09-55.68.22-4,.75-8.01,1.6-11.93,2.43-11.36,7.4-21.97,14.48-31.05-66.65-5.27-131.43,29.13-164.41,87.32Z"/>
  </g>
</svg>